<svg width="390" height="103" viewBox="0 0 390 103" fill="none" xmlns="http://www.w3.org/2000/svg">
<g clip-path="url(#clip0_7094_4660)">
<path fill-rule="evenodd" clip-rule="evenodd" d="M66.3649 43.4298C66.3649 39.5541 69.5068 36.4123 73.3824 36.4123C77.2581 36.4123 80.4 39.5541 80.4 43.4298V51.8509H69.1719V59.5702C69.1719 61.8956 71.057 63.7807 73.3824 63.7807C75.7079 63.7807 77.593 61.8956 77.593 59.5702V57.4649H80.4V59.5702C80.4 63.4459 77.2581 66.5877 73.3824 66.5877C69.5068 66.5877 66.3649 63.4459 66.3649 59.5702V43.4298ZM69.1719 49.0439H77.593V43.4298C77.593 41.1044 75.7079 39.2193 73.3824 39.2193C71.057 39.2193 69.1719 41.1044 69.1719 43.4298V49.0439Z" fill="#0F1230"/>
<path fill-rule="evenodd" clip-rule="evenodd" d="M31.2773 39.2193H24.2597V36.4123H34.0843V60.2719C34.0843 63.76 31.2566 66.5877 27.7685 66.5877C24.2804 66.5877 21.4527 63.7601 21.4527 60.2719V56.9611H24.2597V60.2719C24.2597 62.2098 25.8306 63.7807 27.7685 63.7807C29.7063 63.7807 31.2773 62.2098 31.2773 60.2719V39.2193Z" fill="#0F1230"/>
<path fill-rule="evenodd" clip-rule="evenodd" d="M48.1193 36.4123H56.756C59.7375 36.4123 62.1544 38.8292 62.1544 41.8107V44.0879C62.1544 46.7869 60.7777 49.1965 58.6537 50.6038C60.807 52.2319 62.1544 54.8078 62.1544 57.6377V59.9004C62.1544 63.2061 59.4746 65.886 56.1688 65.886H48.1193V36.4123ZM55.0442 49.0439C57.5083 48.6953 59.3474 46.5848 59.3474 44.0879V41.8107C59.3474 40.3795 58.1872 39.2193 56.756 39.2193H50.9263V49.0439H55.0442ZM50.9263 51.8509V63.079H56.1688C57.9243 63.079 59.3474 61.6559 59.3474 59.9004V57.6377C59.3474 54.9356 57.5449 52.5733 54.955 51.8509H50.9263Z" fill="#0F1230"/>
<path fill-rule="evenodd" clip-rule="evenodd" d="M39.6982 44.8333H42.5053L42.5053 65.886H39.6982V44.8333Z" fill="#0F1230"/>
<path fill-rule="evenodd" clip-rule="evenodd" d="M39.6982 40.6228V36.4123H42.5053V40.6228H39.6982Z" fill="#9FD837"/>
<path fill-rule="evenodd" clip-rule="evenodd" d="M10.2246 49.044V46.237H13.0316V49.044H10.2246Z" fill="#9FD837"/>
<path fill-rule="evenodd" clip-rule="evenodd" d="M10.2246 44.8335V42.0265H13.0316V44.8335H10.2246Z" fill="#9FD837"/>
<path fill-rule="evenodd" clip-rule="evenodd" d="M10.2246 40.623V37.8159H13.0316V40.623H10.2246Z" fill="#9FD837"/>
<path fill-rule="evenodd" clip-rule="evenodd" d="M6.01409 44.8335V42.0265H8.82111V44.8335H6.01409Z" fill="#9FD837"/>
<path fill-rule="evenodd" clip-rule="evenodd" d="M6.01409 49.044V46.237H8.82111V49.044H6.01409Z" fill="#9FD837"/>
<path fill-rule="evenodd" clip-rule="evenodd" d="M1.80355 49.044V46.237H4.61057V49.044H1.80355Z" fill="#9FD837"/>
<path d="M0.399994 50.4476H14.4351L14.4351 65.8862C6.68372 65.8862 0.399994 59.6024 0.399994 51.8511V50.4476Z" fill="#0F1230"/>
<path d="M80.4 52.0009H80.55V51.8509V43.4298C80.55 39.4713 77.341 36.2623 73.3824 36.2623C69.4239 36.2623 66.2149 39.4713 66.2149 43.4298V59.5702C66.2149 63.5287 69.4239 66.7377 73.3824 66.7377C77.341 66.7377 80.55 63.5287 80.55 59.5702V57.4649V57.3149H80.4H77.593H77.443V57.4649V59.5702C77.443 61.8127 75.625 63.6307 73.3824 63.6307C71.1399 63.6307 69.3219 61.8127 69.3219 59.5702V52.0009H80.4ZM24.1097 39.2193V39.3693H24.2597H31.1273V60.2719C31.1273 62.1269 29.6235 63.6307 27.7685 63.6307C25.9135 63.6307 24.4097 62.1269 24.4097 60.2719V56.9611V56.8111H24.2597H21.4527H21.3027V56.9611V60.2719C21.3027 63.8429 24.1975 66.7377 27.7685 66.7377C31.3394 66.7377 34.2343 63.8429 34.2343 60.2719V36.4123V36.2623H34.0843H24.2597H24.1097V36.4123V39.2193ZM48.1193 36.2623H47.9693V36.4123V65.886V66.036H48.1193H56.1688C59.5574 66.036 62.3044 63.289 62.3044 59.9004V57.6377C62.3044 54.8323 61.0024 52.2725 58.9086 50.6116C60.9752 49.1631 62.3044 46.7652 62.3044 44.0879V41.8107C62.3044 38.7464 59.8203 36.2623 56.756 36.2623H48.1193ZM39.6982 44.6833H39.5482V44.8333V65.886V66.036H39.6982H42.5053H42.6553V65.886L42.6553 44.8333V44.6833H42.5053H39.6982ZM39.5482 40.6228V40.7728H39.6982H42.5053H42.6553V40.6228V36.4123V36.2623H42.5053H39.6982H39.5482V36.4123V40.6228ZM10.0746 49.044V49.194H10.2246H13.0316H13.1816V49.044V46.237V46.087H13.0316H10.2246H10.0746V46.237V49.044ZM10.0746 44.8335V44.9835H10.2246H13.0316H13.1816V44.8335V42.0265V41.8765H13.0316H10.2246H10.0746V42.0265V44.8335ZM10.0746 40.623V40.773H10.2246H13.0316H13.1816V40.623V37.8159V37.6659H13.0316H10.2246H10.0746V37.8159V40.623ZM5.86409 44.8335V44.9835H6.01409H8.82111H8.97111V44.8335V42.0265V41.8765H8.82111H6.01409H5.86409V42.0265V44.8335ZM5.86409 49.044V49.194H6.01409H8.82111H8.97111V49.044V46.237V46.087H8.82111H6.01409H5.86409V46.237V49.044ZM1.65355 49.044V49.194H1.80355H4.61057H4.76057V49.044V46.237V46.087H4.61057H1.80355H1.65355V46.237V49.044ZM0.399994 50.2976H0.249994V50.4476V51.8511C0.249994 59.6853 6.60088 66.0362 14.4351 66.0362H14.5851V65.8862L14.5851 50.4476V50.2976H14.4351H0.399994ZM77.443 43.4298V48.8939H69.3219V43.4298C69.3219 41.1872 71.1399 39.3693 73.3824 39.3693C75.625 39.3693 77.443 41.1872 77.443 43.4298ZM59.1974 44.0879C59.1974 46.5065 57.4185 48.5513 55.0335 48.8939H51.0763V39.3693H56.756C58.1044 39.3693 59.1974 40.4623 59.1974 41.8107V44.0879ZM56.1688 62.929H51.0763V52.0009H54.9343C57.449 52.7117 59.1974 55.0099 59.1974 57.6377V59.9004C59.1974 61.573 57.8415 62.929 56.1688 62.929Z" stroke="white" stroke-opacity="0.5" stroke-width="0.3"/>
<rect x="105.4" y="12" width="2" height="79" fill="#E5E5E5"/>
<g clip-path="url(#clip1_7094_4660)">
<path d="M138.041 17.5703L134.947 27H132.455L136.681 15.625H138.267L138.041 17.5703ZM140.611 27L137.509 17.5703L137.259 15.625H138.861L143.111 27H140.611ZM140.47 22.7656V24.6016H134.462V22.7656H140.47ZM145.978 20.3516V27H143.728V18.5469H145.837L145.978 20.3516ZM145.65 22.4766H145.041C145.041 21.8516 145.121 21.2891 145.283 20.7891C145.444 20.2839 145.671 19.8542 145.962 19.5C146.254 19.1406 146.601 18.8672 147.002 18.6797C147.408 18.487 147.861 18.3906 148.361 18.3906C148.757 18.3906 149.119 18.4479 149.447 18.5625C149.775 18.6771 150.056 18.8594 150.291 19.1094C150.53 19.3594 150.712 19.6901 150.837 20.1016C150.968 20.513 151.033 21.0156 151.033 21.6094V27H148.767V21.6016C148.767 21.2266 148.715 20.9349 148.611 20.7266C148.507 20.5182 148.353 20.3724 148.15 20.2891C147.952 20.2005 147.707 20.1562 147.416 20.1562C147.114 20.1562 146.851 20.2161 146.627 20.3359C146.408 20.4557 146.226 20.6224 146.08 20.8359C145.939 21.0443 145.832 21.2891 145.759 21.5703C145.686 21.8516 145.65 22.1536 145.65 22.4766ZM155.119 18.5469V27H152.861V18.5469H155.119ZM152.72 16.3438C152.72 16.0156 152.835 15.7448 153.064 15.5312C153.293 15.3177 153.601 15.2109 153.986 15.2109C154.366 15.2109 154.671 15.3177 154.9 15.5312C155.134 15.7448 155.252 16.0156 155.252 16.3438C155.252 16.6719 155.134 16.9427 154.9 17.1562C154.671 17.3698 154.366 17.4766 153.986 17.4766C153.601 17.4766 153.293 17.3698 153.064 17.1562C152.835 16.9427 152.72 16.6719 152.72 16.3438ZM161.548 24.6641C161.548 24.5026 161.502 24.3568 161.408 24.2266C161.314 24.0964 161.14 23.9766 160.884 23.8672C160.634 23.7526 160.272 23.6484 159.798 23.5547C159.371 23.4609 158.973 23.3438 158.603 23.2031C158.239 23.0573 157.921 22.8828 157.65 22.6797C157.384 22.4766 157.176 22.237 157.025 21.9609C156.874 21.6797 156.798 21.3594 156.798 21C156.798 20.6458 156.874 20.3125 157.025 20C157.181 19.6875 157.403 19.4115 157.689 19.1719C157.981 18.9271 158.335 18.737 158.752 18.6016C159.173 18.4609 159.647 18.3906 160.173 18.3906C160.908 18.3906 161.538 18.5078 162.064 18.7422C162.595 18.9766 163.002 19.2995 163.283 19.7109C163.569 20.1172 163.712 20.5807 163.712 21.1016H161.462C161.462 20.8828 161.416 20.6875 161.322 20.5156C161.233 20.3385 161.093 20.2005 160.9 20.1016C160.712 19.9974 160.468 19.9453 160.166 19.9453C159.916 19.9453 159.699 19.9896 159.517 20.0781C159.335 20.1615 159.194 20.276 159.095 20.4219C159.002 20.5625 158.955 20.7188 158.955 20.8906C158.955 21.0208 158.981 21.138 159.033 21.2422C159.09 21.3411 159.181 21.4323 159.306 21.5156C159.431 21.599 159.593 21.6771 159.791 21.75C159.994 21.8177 160.244 21.8802 160.541 21.9375C161.15 22.0625 161.694 22.2266 162.173 22.4297C162.653 22.6276 163.033 22.8984 163.314 23.2422C163.595 23.5807 163.736 24.026 163.736 24.5781C163.736 24.9531 163.653 25.2969 163.486 25.6094C163.319 25.9219 163.08 26.1953 162.767 26.4297C162.455 26.6589 162.08 26.8385 161.642 26.9688C161.21 27.0938 160.723 27.1562 160.181 27.1562C159.395 27.1562 158.728 27.0156 158.181 26.7344C157.64 26.4531 157.228 26.0964 156.947 25.6641C156.671 25.2266 156.533 24.7786 156.533 24.3203H158.666C158.676 24.6276 158.754 24.875 158.9 25.0625C159.051 25.25 159.241 25.3854 159.47 25.4688C159.705 25.5521 159.957 25.5938 160.228 25.5938C160.52 25.5938 160.762 25.5547 160.955 25.4766C161.147 25.3932 161.293 25.2839 161.392 25.1484C161.496 25.0078 161.548 24.8464 161.548 24.6641ZM167.392 15V27H165.142V15H167.392ZM167.072 22.4766H166.455C166.46 21.888 166.538 21.3464 166.689 20.8516C166.84 20.3516 167.056 19.9193 167.337 19.5547C167.619 19.1849 167.955 18.8984 168.345 18.6953C168.741 18.4922 169.179 18.3906 169.658 18.3906C170.074 18.3906 170.452 18.4505 170.791 18.5703C171.134 18.6849 171.429 18.8724 171.673 19.1328C171.923 19.388 172.116 19.724 172.252 20.1406C172.387 20.5573 172.455 21.0625 172.455 21.6562V27H170.189V21.6406C170.189 21.2656 170.134 20.9714 170.025 20.7578C169.921 20.5391 169.767 20.3854 169.564 20.2969C169.366 20.2031 169.121 20.1562 168.83 20.1562C168.507 20.1562 168.231 20.2161 168.002 20.3359C167.778 20.4557 167.598 20.6224 167.462 20.8359C167.327 21.0443 167.228 21.2891 167.166 21.5703C167.103 21.8516 167.072 22.1536 167.072 22.4766ZM182.892 23.5078V15.625H185.228V23.5078C185.228 24.2682 185.061 24.9219 184.728 25.4688C184.395 26.0104 183.939 26.4271 183.361 26.7188C182.788 27.0104 182.142 27.1562 181.423 27.1562C180.679 27.1562 180.02 27.0312 179.447 26.7812C178.874 26.5312 178.423 26.1484 178.095 25.6328C177.767 25.112 177.603 24.4531 177.603 23.6562H179.955C179.955 24.0729 180.012 24.4036 180.127 24.6484C180.246 24.8932 180.416 25.0677 180.634 25.1719C180.853 25.276 181.116 25.3281 181.423 25.3281C181.72 25.3281 181.978 25.2578 182.197 25.1172C182.416 24.9766 182.585 24.7708 182.705 24.5C182.83 24.2292 182.892 23.8984 182.892 23.5078ZM191.65 25.0938V21.3281C191.65 21.0573 191.606 20.8255 191.517 20.6328C191.429 20.4349 191.291 20.2812 191.103 20.1719C190.921 20.0625 190.684 20.0078 190.392 20.0078C190.142 20.0078 189.926 20.0521 189.744 20.1406C189.561 20.224 189.421 20.3464 189.322 20.5078C189.223 20.6641 189.173 20.849 189.173 21.0625H186.923C186.923 20.7031 187.007 20.362 187.173 20.0391C187.34 19.7161 187.582 19.4323 187.9 19.1875C188.218 18.9375 188.595 18.7422 189.033 18.6016C189.476 18.4609 189.97 18.3906 190.517 18.3906C191.173 18.3906 191.757 18.5 192.267 18.7188C192.778 18.9375 193.179 19.2656 193.47 19.7031C193.767 20.1406 193.916 20.6875 193.916 21.3438V24.9609C193.916 25.4245 193.944 25.8047 194.002 26.1016C194.059 26.3932 194.142 26.6484 194.252 26.8672V27H191.978C191.869 26.7708 191.785 26.4844 191.728 26.1406C191.676 25.7917 191.65 25.4427 191.65 25.0938ZM191.947 21.8516L191.962 23.125H190.705C190.408 23.125 190.15 23.1589 189.931 23.2266C189.712 23.2943 189.533 23.3906 189.392 23.5156C189.252 23.6354 189.147 23.776 189.08 23.9375C189.017 24.099 188.986 24.276 188.986 24.4688C188.986 24.6615 189.03 24.8359 189.119 24.9922C189.207 25.1432 189.335 25.263 189.502 25.3516C189.668 25.4349 189.864 25.4766 190.087 25.4766C190.426 25.4766 190.72 25.4089 190.97 25.2734C191.22 25.138 191.413 24.9714 191.548 24.7734C191.689 24.5755 191.762 24.388 191.767 24.2109L192.361 25.1641C192.278 25.3776 192.163 25.599 192.017 25.8281C191.877 26.0573 191.697 26.2734 191.478 26.4766C191.259 26.6745 190.996 26.8385 190.689 26.9688C190.382 27.0938 190.017 27.1562 189.595 27.1562C189.059 27.1562 188.572 27.0495 188.134 26.8359C187.702 26.6172 187.358 26.3177 187.103 25.9375C186.853 25.5521 186.728 25.1146 186.728 24.625C186.728 24.1823 186.811 23.7891 186.978 23.4453C187.145 23.1016 187.39 22.8125 187.712 22.5781C188.041 22.3385 188.449 22.1589 188.939 22.0391C189.429 21.9141 189.996 21.8516 190.642 21.8516H191.947ZM200.642 25.1562V15H202.908V27H200.869L200.642 25.1562ZM195.298 22.875V22.7109C195.298 22.0651 195.371 21.4792 195.517 20.9531C195.663 20.4219 195.877 19.9661 196.158 19.5859C196.439 19.2057 196.785 18.9115 197.197 18.7031C197.608 18.4948 198.077 18.3906 198.603 18.3906C199.098 18.3906 199.53 18.4948 199.9 18.7031C200.275 18.9115 200.593 19.2083 200.853 19.5938C201.119 19.974 201.332 20.4245 201.494 20.9453C201.655 21.4609 201.772 22.026 201.845 22.6406V23C201.772 23.5885 201.655 24.1354 201.494 24.6406C201.332 25.1458 201.119 25.5885 200.853 25.9688C200.593 26.3438 200.275 26.6354 199.9 26.8438C199.525 27.0521 199.087 27.1562 198.587 27.1562C198.061 27.1562 197.593 27.0495 197.181 26.8359C196.775 26.6224 196.431 26.3229 196.15 25.9375C195.874 25.5521 195.663 25.099 195.517 24.5781C195.371 24.0573 195.298 23.4896 195.298 22.875ZM197.548 22.7109V22.875C197.548 23.224 197.574 23.5495 197.627 23.8516C197.684 24.1536 197.775 24.4219 197.9 24.6562C198.03 24.8854 198.197 25.0651 198.4 25.1953C198.608 25.3203 198.861 25.3828 199.158 25.3828C199.543 25.3828 199.861 25.2969 200.111 25.125C200.361 24.9479 200.551 24.7057 200.681 24.3984C200.817 24.0911 200.895 23.737 200.916 23.3359V22.3125C200.9 21.9844 200.853 21.6901 200.775 21.4297C200.702 21.1641 200.593 20.9375 200.447 20.75C200.306 20.5625 200.129 20.4167 199.916 20.3125C199.707 20.2083 199.46 20.1562 199.173 20.1562C198.882 20.1562 198.632 20.224 198.423 20.3594C198.215 20.4896 198.046 20.6693 197.916 20.8984C197.791 21.1276 197.697 21.3984 197.634 21.7109C197.577 22.0182 197.548 22.3516 197.548 22.7109ZM206.861 15V27H204.611V15H206.861ZM206.541 22.4766H205.923C205.929 21.888 206.007 21.3464 206.158 20.8516C206.309 20.3516 206.525 19.9193 206.806 19.5547C207.087 19.1849 207.423 18.8984 207.814 18.6953C208.21 18.4922 208.647 18.3906 209.127 18.3906C209.543 18.3906 209.921 18.4505 210.259 18.5703C210.603 18.6849 210.897 18.8724 211.142 19.1328C211.392 19.388 211.585 19.724 211.72 20.1406C211.856 20.5573 211.923 21.0625 211.923 21.6562V27H209.658V21.6406C209.658 21.2656 209.603 20.9714 209.494 20.7578C209.39 20.5391 209.236 20.3854 209.033 20.2969C208.835 20.2031 208.59 20.1562 208.298 20.1562C207.976 20.1562 207.699 20.2161 207.47 20.3359C207.246 20.4557 207.067 20.6224 206.931 20.8359C206.796 21.0443 206.697 21.2891 206.634 21.5703C206.572 21.8516 206.541 22.1536 206.541 22.4766ZM218.197 25.0938V21.3281C218.197 21.0573 218.153 20.8255 218.064 20.6328C217.976 20.4349 217.837 20.2812 217.65 20.1719C217.468 20.0625 217.231 20.0078 216.939 20.0078C216.689 20.0078 216.473 20.0521 216.291 20.1406C216.108 20.224 215.968 20.3464 215.869 20.5078C215.77 20.6641 215.72 20.849 215.72 21.0625H213.47C213.47 20.7031 213.554 20.362 213.72 20.0391C213.887 19.7161 214.129 19.4323 214.447 19.1875C214.765 18.9375 215.142 18.7422 215.58 18.6016C216.022 18.4609 216.517 18.3906 217.064 18.3906C217.72 18.3906 218.304 18.5 218.814 18.7188C219.324 18.9375 219.726 19.2656 220.017 19.7031C220.314 20.1406 220.462 20.6875 220.462 21.3438V24.9609C220.462 25.4245 220.491 25.8047 220.548 26.1016C220.606 26.3932 220.689 26.6484 220.798 26.8672V27H218.525C218.416 26.7708 218.332 26.4844 218.275 26.1406C218.223 25.7917 218.197 25.4427 218.197 25.0938ZM218.494 21.8516L218.509 23.125H217.252C216.955 23.125 216.697 23.1589 216.478 23.2266C216.259 23.2943 216.08 23.3906 215.939 23.5156C215.798 23.6354 215.694 23.776 215.627 23.9375C215.564 24.099 215.533 24.276 215.533 24.4688C215.533 24.6615 215.577 24.8359 215.666 24.9922C215.754 25.1432 215.882 25.263 216.048 25.3516C216.215 25.4349 216.41 25.4766 216.634 25.4766C216.973 25.4766 217.267 25.4089 217.517 25.2734C217.767 25.138 217.96 24.9714 218.095 24.7734C218.236 24.5755 218.309 24.388 218.314 24.2109L218.908 25.1641C218.824 25.3776 218.71 25.599 218.564 25.8281C218.423 26.0573 218.244 26.2734 218.025 26.4766C217.806 26.6745 217.543 26.8385 217.236 26.9688C216.929 27.0938 216.564 27.1562 216.142 27.1562C215.606 27.1562 215.119 27.0495 214.681 26.8359C214.249 26.6172 213.905 26.3177 213.65 25.9375C213.4 25.5521 213.275 25.1146 213.275 24.625C213.275 24.1823 213.358 23.7891 213.525 23.4453C213.692 23.1016 213.936 22.8125 214.259 22.5781C214.587 22.3385 214.996 22.1589 215.486 22.0391C215.976 21.9141 216.543 21.8516 217.189 21.8516H218.494ZM224.947 25.3594L226.822 18.5469H229.173L226.322 27H224.9L224.947 25.3594ZM223.658 18.5469L225.541 25.3672L225.58 27H224.15L221.298 18.5469H223.658Z" fill="#6F6F6F"/>
<path d="M135.469 37.0469V47H133.425V37.0469H135.469ZM139.195 41.1826V47H137.226V39.6035H139.072L139.195 41.1826ZM138.908 43.042H138.375C138.375 42.4951 138.445 42.0029 138.587 41.5654C138.728 41.1234 138.926 40.7474 139.181 40.4375C139.436 40.123 139.74 39.8838 140.09 39.7197C140.446 39.5511 140.842 39.4668 141.28 39.4668C141.626 39.4668 141.943 39.5169 142.23 39.6172C142.517 39.7174 142.763 39.877 142.968 40.0957C143.178 40.3145 143.337 40.6038 143.447 40.9639C143.561 41.3239 143.618 41.7637 143.618 42.2832V47H141.635V42.2764C141.635 41.9482 141.59 41.693 141.499 41.5107C141.407 41.3285 141.273 41.2008 141.095 41.1279C140.922 41.0505 140.708 41.0117 140.453 41.0117C140.188 41.0117 139.958 41.0641 139.762 41.1689C139.571 41.2738 139.411 41.4196 139.284 41.6064C139.161 41.7887 139.067 42.0029 139.004 42.249C138.94 42.4951 138.908 42.7594 138.908 43.042ZM148.738 39.6035V40.998H144.431V39.6035H148.738ZM145.498 37.7783H147.466V44.7715C147.466 44.9857 147.494 45.1497 147.548 45.2637C147.608 45.3776 147.694 45.4574 147.808 45.5029C147.922 45.5439 148.066 45.5645 148.239 45.5645C148.362 45.5645 148.471 45.5599 148.567 45.5508C148.667 45.5371 148.752 45.5234 148.82 45.5098L148.827 46.959C148.658 47.0137 148.476 47.057 148.28 47.0889C148.084 47.1208 147.867 47.1367 147.63 47.1367C147.198 47.1367 146.819 47.0661 146.496 46.9248C146.177 46.779 145.931 46.5465 145.757 46.2275C145.584 45.9085 145.498 45.4893 145.498 44.9697V37.7783ZM153.263 47.1367C152.689 47.1367 152.174 47.0456 151.718 46.8633C151.263 46.6764 150.875 46.4189 150.556 46.0908C150.242 45.7627 150 45.3822 149.832 44.9492C149.663 44.5117 149.579 44.0469 149.579 43.5547V43.2812C149.579 42.7207 149.658 42.208 149.818 41.7432C149.977 41.2783 150.205 40.875 150.502 40.5332C150.802 40.1914 151.167 39.9294 151.595 39.7471C152.024 39.5602 152.507 39.4668 153.045 39.4668C153.569 39.4668 154.033 39.5534 154.439 39.7266C154.845 39.8997 155.184 40.1458 155.458 40.4648C155.736 40.7839 155.945 41.1667 156.087 41.6133C156.228 42.0553 156.298 42.5475 156.298 43.0898V43.9102H150.42V42.5977H154.364V42.4473C154.364 42.1738 154.314 41.93 154.213 41.7158C154.118 41.4971 153.972 41.3239 153.776 41.1963C153.58 41.0687 153.329 41.0049 153.024 41.0049C152.764 41.0049 152.541 41.0618 152.354 41.1758C152.167 41.2897 152.015 41.4492 151.896 41.6543C151.782 41.8594 151.696 42.1009 151.636 42.3789C151.582 42.6523 151.554 42.9531 151.554 43.2812V43.5547C151.554 43.8509 151.595 44.1243 151.677 44.375C151.764 44.6257 151.885 44.8421 152.04 45.0244C152.199 45.2067 152.391 45.348 152.614 45.4482C152.842 45.5485 153.099 45.5986 153.386 45.5986C153.742 45.5986 154.072 45.5303 154.378 45.3936C154.687 45.2523 154.954 45.0404 155.177 44.7578L156.134 45.7969C155.979 46.0202 155.768 46.2344 155.499 46.4395C155.234 46.6445 154.915 46.8132 154.542 46.9453C154.168 47.0729 153.742 47.1367 153.263 47.1367ZM159.388 41.2168V47H157.42V39.6035H159.272L159.388 41.2168ZM161.617 39.5557L161.583 41.3809C161.487 41.3672 161.371 41.3558 161.234 41.3467C161.102 41.333 160.981 41.3262 160.872 41.3262C160.594 41.3262 160.352 41.3626 160.147 41.4355C159.947 41.5039 159.778 41.6064 159.641 41.7432C159.509 41.8799 159.409 42.0462 159.34 42.2422C159.277 42.4382 159.24 42.6615 159.231 42.9121L158.835 42.7891C158.835 42.3105 158.882 41.8708 158.978 41.4697C159.074 41.0641 159.213 40.7109 159.395 40.4102C159.582 40.1094 159.81 39.877 160.079 39.7129C160.348 39.5488 160.655 39.4668 161.002 39.4668C161.111 39.4668 161.223 39.4759 161.337 39.4941C161.45 39.5078 161.544 39.5283 161.617 39.5557ZM164.474 41.1826V47H162.505V39.6035H164.351L164.474 41.1826ZM164.187 43.042H163.654C163.654 42.4951 163.725 42.0029 163.866 41.5654C164.007 41.1234 164.205 40.7474 164.461 40.4375C164.716 40.123 165.019 39.8838 165.37 39.7197C165.725 39.5511 166.122 39.4668 166.559 39.4668C166.906 39.4668 167.222 39.5169 167.509 39.6172C167.796 39.7174 168.043 39.877 168.248 40.0957C168.457 40.3145 168.617 40.6038 168.726 40.9639C168.84 41.3239 168.897 41.7637 168.897 42.2832V47H166.915V42.2764C166.915 41.9482 166.869 41.693 166.778 41.5107C166.687 41.3285 166.552 41.2008 166.375 41.1279C166.201 41.0505 165.987 41.0117 165.732 41.0117C165.468 41.0117 165.238 41.0641 165.042 41.1689C164.85 41.2738 164.691 41.4196 164.563 41.6064C164.44 41.7887 164.347 42.0029 164.283 42.249C164.219 42.4951 164.187 42.7594 164.187 43.042Z" fill="#7886A2"/>
<path d="M136.964 68.916V65.6523C136.964 65.4023 136.914 65.1855 136.812 65.002C136.714 64.8145 136.566 64.6699 136.367 64.5684C136.168 64.4668 135.921 64.416 135.629 64.416C135.355 64.416 135.115 64.4629 134.908 64.5566C134.705 64.6504 134.545 64.7734 134.427 64.9258C134.314 65.0781 134.257 65.2422 134.257 65.418H133.173C133.173 65.1914 133.232 64.9668 133.349 64.7441C133.466 64.5215 133.634 64.3203 133.853 64.1406C134.076 63.957 134.341 63.8125 134.65 63.707C134.962 63.5977 135.31 63.543 135.693 63.543C136.154 63.543 136.56 63.6211 136.912 63.7773C137.267 63.9336 137.545 64.1699 137.744 64.4863C137.947 64.7988 138.048 65.1914 138.048 65.6641V68.6172C138.048 68.8281 138.066 69.0527 138.101 69.291C138.14 69.5293 138.197 69.7344 138.271 69.9062V70H137.14C137.086 69.875 137.043 69.709 137.011 69.502C136.98 69.291 136.964 69.0957 136.964 68.916ZM137.152 66.1562L137.164 66.918H136.068C135.759 66.918 135.484 66.9434 135.242 66.9941C135 67.041 134.796 67.1133 134.632 67.2109C134.468 67.3086 134.343 67.4316 134.257 67.5801C134.171 67.7246 134.129 67.8945 134.129 68.0898C134.129 68.2891 134.173 68.4707 134.263 68.6348C134.353 68.7988 134.488 68.9297 134.668 69.0273C134.851 69.1211 135.076 69.168 135.341 69.168C135.673 69.168 135.966 69.0977 136.22 68.957C136.474 68.8164 136.675 68.6445 136.824 68.4414C136.976 68.2383 137.058 68.041 137.07 67.8496L137.533 68.3711C137.505 68.5352 137.431 68.7168 137.31 68.916C137.189 69.1152 137.027 69.3066 136.824 69.4902C136.625 69.6699 136.386 69.8203 136.109 69.9414C135.836 70.0586 135.527 70.1172 135.183 70.1172C134.754 70.1172 134.377 70.0332 134.052 69.8652C133.732 69.6973 133.482 69.4727 133.302 69.1914C133.127 68.9062 133.039 68.5879 133.039 68.2363C133.039 67.8965 133.105 67.5977 133.238 67.3398C133.371 67.0781 133.562 66.8613 133.812 66.6895C134.062 66.5137 134.363 66.3809 134.714 66.291C135.066 66.2012 135.459 66.1562 135.892 66.1562H137.152ZM140.837 65.0137V70H139.754V63.6602H140.779L140.837 65.0137ZM140.58 66.5898L140.129 66.5723C140.132 66.1387 140.197 65.7383 140.322 65.3711C140.447 65 140.623 64.6777 140.849 64.4043C141.076 64.1309 141.345 63.9199 141.658 63.7715C141.974 63.6191 142.324 63.543 142.707 63.543C143.019 63.543 143.3 63.5859 143.55 63.6719C143.8 63.7539 144.013 63.8867 144.189 64.0703C144.369 64.2539 144.505 64.4922 144.599 64.7852C144.693 65.0742 144.74 65.4277 144.74 65.8457V70H143.65V65.834C143.65 65.502 143.601 65.2363 143.504 65.0371C143.406 64.834 143.263 64.6875 143.076 64.5977C142.888 64.5039 142.658 64.457 142.384 64.457C142.115 64.457 141.869 64.5137 141.646 64.627C141.427 64.7402 141.238 64.8965 141.078 65.0957C140.921 65.2949 140.798 65.5234 140.709 65.7812C140.623 66.0352 140.58 66.3047 140.58 66.5898ZM147.564 63.6602V70H146.474V63.6602H147.564ZM146.392 61.9785C146.392 61.8027 146.445 61.6543 146.55 61.5332C146.66 61.4121 146.82 61.3516 147.031 61.3516C147.238 61.3516 147.396 61.4121 147.505 61.5332C147.619 61.6543 147.675 61.8027 147.675 61.9785C147.675 62.1465 147.619 62.291 147.505 62.4121C147.396 62.5293 147.238 62.5879 147.031 62.5879C146.82 62.5879 146.66 62.5293 146.55 62.4121C146.445 62.291 146.392 62.1465 146.392 61.9785ZM152.996 68.3184C152.996 68.1621 152.961 68.0176 152.89 67.8848C152.824 67.748 152.685 67.625 152.474 67.5156C152.267 67.4023 151.955 67.3047 151.537 67.2227C151.185 67.1484 150.867 67.0605 150.582 66.959C150.3 66.8574 150.06 66.7344 149.861 66.5898C149.666 66.4453 149.515 66.2754 149.41 66.0801C149.304 65.8848 149.252 65.6562 149.252 65.3945C149.252 65.1445 149.306 64.9082 149.416 64.6855C149.529 64.4629 149.687 64.2656 149.89 64.0938C150.097 63.9219 150.345 63.7871 150.634 63.6895C150.923 63.5918 151.246 63.543 151.601 63.543C152.109 63.543 152.543 63.6328 152.902 63.8125C153.261 63.9922 153.537 64.2324 153.728 64.5332C153.92 64.8301 154.015 65.1602 154.015 65.5234H152.931C152.931 65.3477 152.879 65.1777 152.773 65.0137C152.671 64.8457 152.521 64.707 152.322 64.5977C152.127 64.4883 151.886 64.4336 151.601 64.4336C151.3 64.4336 151.056 64.4805 150.869 64.5742C150.685 64.6641 150.55 64.7793 150.464 64.9199C150.382 65.0605 150.341 65.209 150.341 65.3652C150.341 65.4824 150.361 65.5879 150.4 65.6816C150.443 65.7715 150.517 65.8555 150.623 65.9336C150.728 66.0078 150.877 66.0781 151.068 66.1445C151.259 66.2109 151.504 66.2773 151.8 66.3438C152.32 66.4609 152.748 66.6016 153.084 66.7656C153.42 66.9297 153.67 67.1309 153.834 67.3691C153.998 67.6074 154.08 67.8965 154.08 68.2363C154.08 68.5137 154.021 68.7676 153.904 68.998C153.791 69.2285 153.625 69.4277 153.406 69.5957C153.191 69.7598 152.933 69.8887 152.632 69.9824C152.336 70.0723 152.002 70.1172 151.63 70.1172C151.072 70.1172 150.599 70.0176 150.212 69.8184C149.826 69.6191 149.533 69.3613 149.334 69.0449C149.134 68.7285 149.035 68.3945 149.035 68.043H150.125C150.14 68.3398 150.226 68.5762 150.382 68.752C150.539 68.9238 150.73 69.0469 150.957 69.1211C151.183 69.1914 151.408 69.2266 151.63 69.2266C151.927 69.2266 152.175 69.1875 152.375 69.1094C152.578 69.0312 152.732 68.9238 152.837 68.7871C152.943 68.6504 152.996 68.4941 152.996 68.3184ZM156.587 61V70H155.504V61H156.587ZM156.33 66.5898L155.879 66.5723C155.882 66.1387 155.947 65.7383 156.072 65.3711C156.197 65 156.373 64.6777 156.599 64.4043C156.826 64.1309 157.095 63.9199 157.408 63.7715C157.724 63.6191 158.074 63.543 158.457 63.543C158.769 63.543 159.05 63.5859 159.3 63.6719C159.55 63.7539 159.763 63.8867 159.939 64.0703C160.119 64.2539 160.255 64.4922 160.349 64.7852C160.443 65.0742 160.49 65.4277 160.49 65.8457V70H159.4V65.834C159.4 65.502 159.351 65.2363 159.254 65.0371C159.156 64.834 159.013 64.6875 158.826 64.5977C158.638 64.5039 158.408 64.457 158.134 64.457C157.865 64.457 157.619 64.5137 157.396 64.627C157.177 64.7402 156.988 64.8965 156.828 65.0957C156.671 65.2949 156.548 65.5234 156.459 65.7812C156.373 66.0352 156.33 66.3047 156.33 66.5898ZM162.13 69.4258C162.13 69.2422 162.187 69.0879 162.3 68.9629C162.418 68.834 162.586 68.7695 162.804 68.7695C163.023 68.7695 163.189 68.834 163.302 68.9629C163.42 69.0879 163.478 69.2422 163.478 69.4258C163.478 69.6055 163.42 69.7578 163.302 69.8828C163.189 70.0078 163.023 70.0703 162.804 70.0703C162.586 70.0703 162.418 70.0078 162.3 69.8828C162.187 69.7578 162.13 69.6055 162.13 69.4258ZM165.306 63.6602H166.396V70.7559C166.396 71.1426 166.334 71.4707 166.209 71.7402C166.087 72.0098 165.904 72.2129 165.658 72.3496C165.416 72.4902 165.109 72.5605 164.738 72.5605C164.64 72.5605 164.527 72.5508 164.398 72.5312C164.265 72.5117 164.154 72.4883 164.064 72.4609L164.07 71.5879C164.144 71.6035 164.228 71.6152 164.322 71.623C164.416 71.6348 164.498 71.6406 164.568 71.6406C164.728 71.6406 164.863 71.6113 164.972 71.5527C165.082 71.4941 165.164 71.4004 165.218 71.2715C165.277 71.1426 165.306 70.9707 165.306 70.7559V63.6602ZM165.195 61.9785C165.195 61.8027 165.25 61.6543 165.359 61.5332C165.468 61.4121 165.627 61.3516 165.834 61.3516C166.045 61.3516 166.205 61.4121 166.314 61.5332C166.423 61.6543 166.478 61.8027 166.478 61.9785C166.478 62.1465 166.423 62.291 166.314 62.4121C166.205 62.5293 166.045 62.5879 165.834 62.5879C165.627 62.5879 165.468 62.5293 165.359 62.4121C165.25 62.291 165.195 62.1465 165.195 61.9785ZM171.886 68.916V65.6523C171.886 65.4023 171.836 65.1855 171.734 65.002C171.636 64.8145 171.488 64.6699 171.289 64.5684C171.089 64.4668 170.843 64.416 170.55 64.416C170.277 64.416 170.037 64.4629 169.83 64.5566C169.627 64.6504 169.466 64.7734 169.349 64.9258C169.236 65.0781 169.179 65.2422 169.179 65.418H168.095C168.095 65.1914 168.154 64.9668 168.271 64.7441C168.388 64.5215 168.556 64.3203 168.775 64.1406C168.998 63.957 169.263 63.8125 169.572 63.707C169.884 63.5977 170.232 63.543 170.615 63.543C171.076 63.543 171.482 63.6211 171.834 63.7773C172.189 63.9336 172.466 64.1699 172.666 64.4863C172.869 64.7988 172.97 65.1914 172.97 65.6641V68.6172C172.97 68.8281 172.988 69.0527 173.023 69.291C173.062 69.5293 173.119 69.7344 173.193 69.9062V70H172.062C172.007 69.875 171.964 69.709 171.933 69.502C171.902 69.291 171.886 69.0957 171.886 68.916ZM172.074 66.1562L172.086 66.918H170.99C170.681 66.918 170.406 66.9434 170.164 66.9941C169.921 67.041 169.718 67.1133 169.554 67.2109C169.39 67.3086 169.265 67.4316 169.179 67.5801C169.093 67.7246 169.05 67.8945 169.05 68.0898C169.05 68.2891 169.095 68.4707 169.185 68.6348C169.275 68.7988 169.41 68.9297 169.589 69.0273C169.773 69.1211 169.998 69.168 170.263 69.168C170.595 69.168 170.888 69.0977 171.142 68.957C171.396 68.8164 171.597 68.6445 171.746 68.4414C171.898 68.2383 171.98 68.041 171.992 67.8496L172.455 68.3711C172.427 68.5352 172.353 68.7168 172.232 68.916C172.111 69.1152 171.949 69.3066 171.746 69.4902C171.546 69.6699 171.308 69.8203 171.031 69.9414C170.757 70.0586 170.449 70.1172 170.105 70.1172C169.675 70.1172 169.298 70.0332 168.974 69.8652C168.654 69.6973 168.404 69.4727 168.224 69.1914C168.048 68.9062 167.961 68.5879 167.961 68.2363C167.961 67.8965 168.027 67.5977 168.16 67.3398C168.293 67.0781 168.484 66.8613 168.734 66.6895C168.984 66.5137 169.285 66.3809 169.636 66.291C169.988 66.2012 170.38 66.1562 170.814 66.1562H172.074ZM178.671 68.7695V61H179.761V70H178.765L178.671 68.7695ZM174.406 66.9004V66.7773C174.406 66.293 174.464 65.8535 174.582 65.459C174.703 65.0605 174.873 64.7188 175.091 64.4336C175.314 64.1484 175.578 63.9297 175.882 63.7773C176.191 63.6211 176.535 63.543 176.914 63.543C177.312 63.543 177.66 63.6133 177.957 63.7539C178.257 63.8906 178.511 64.0918 178.718 64.3574C178.929 64.6191 179.095 64.9355 179.216 65.3066C179.337 65.6777 179.421 66.0977 179.468 66.5664V67.1055C179.425 67.5703 179.341 67.9883 179.216 68.3594C179.095 68.7305 178.929 69.0469 178.718 69.3086C178.511 69.5703 178.257 69.7715 177.957 69.9121C177.656 70.0488 177.304 70.1172 176.902 70.1172C176.531 70.1172 176.191 70.0371 175.882 69.877C175.578 69.7168 175.314 69.4922 175.091 69.2031C174.873 68.9141 174.703 68.5742 174.582 68.1836C174.464 67.7891 174.406 67.3613 174.406 66.9004ZM175.496 66.7773V66.9004C175.496 67.2168 175.527 67.5137 175.589 67.791C175.656 68.0684 175.757 68.3125 175.894 68.5234C176.031 68.7344 176.205 68.9004 176.416 69.0215C176.627 69.1387 176.879 69.1973 177.171 69.1973C177.531 69.1973 177.826 69.1211 178.056 68.9688C178.291 68.8164 178.478 68.6152 178.619 68.3652C178.759 68.1152 178.869 67.8438 178.947 67.5508V66.1387C178.9 65.9238 178.832 65.7168 178.742 65.5176C178.656 65.3145 178.543 65.1348 178.402 64.9785C178.265 64.8184 178.095 64.6914 177.892 64.5977C177.693 64.5039 177.457 64.457 177.183 64.457C176.886 64.457 176.63 64.5195 176.416 64.6445C176.205 64.7656 176.031 64.9336 175.894 65.1484C175.757 65.3594 175.656 65.6055 175.589 65.8867C175.527 66.1641 175.496 66.4609 175.496 66.7773ZM182.533 61V70H181.449V61H182.533ZM182.275 66.5898L181.824 66.5723C181.828 66.1387 181.892 65.7383 182.017 65.3711C182.142 65 182.318 64.6777 182.545 64.4043C182.771 64.1309 183.041 63.9199 183.353 63.7715C183.67 63.6191 184.019 63.543 184.402 63.543C184.714 63.543 184.996 63.5859 185.246 63.6719C185.496 63.7539 185.709 63.8867 185.884 64.0703C186.064 64.2539 186.201 64.4922 186.295 64.7852C186.388 65.0742 186.435 65.4277 186.435 65.8457V70H185.345V65.834C185.345 65.502 185.296 65.2363 185.199 65.0371C185.101 64.834 184.959 64.6875 184.771 64.5977C184.584 64.5039 184.353 64.457 184.08 64.457C183.81 64.457 183.564 64.5137 183.341 64.627C183.123 64.7402 182.933 64.8965 182.773 65.0957C182.617 65.2949 182.494 65.5234 182.404 65.7812C182.318 66.0352 182.275 66.3047 182.275 66.5898ZM191.796 68.916V65.6523C191.796 65.4023 191.746 65.1855 191.644 65.002C191.546 64.8145 191.398 64.6699 191.199 64.5684C191 64.4668 190.754 64.416 190.461 64.416C190.187 64.416 189.947 64.4629 189.74 64.5566C189.537 64.6504 189.377 64.7734 189.259 64.9258C189.146 65.0781 189.089 65.2422 189.089 65.418H188.005C188.005 65.1914 188.064 64.9668 188.181 64.7441C188.298 64.5215 188.466 64.3203 188.685 64.1406C188.908 63.957 189.173 63.8125 189.482 63.707C189.795 63.5977 190.142 63.543 190.525 63.543C190.986 63.543 191.392 63.6211 191.744 63.7773C192.099 63.9336 192.377 64.1699 192.576 64.4863C192.779 64.7988 192.88 65.1914 192.88 65.6641V68.6172C192.88 68.8281 192.898 69.0527 192.933 69.291C192.972 69.5293 193.029 69.7344 193.103 69.9062V70H191.972C191.918 69.875 191.875 69.709 191.843 69.502C191.812 69.291 191.796 69.0957 191.796 68.916ZM191.984 66.1562L191.996 66.918H190.9C190.591 66.918 190.316 66.9434 190.074 66.9941C189.832 67.041 189.629 67.1133 189.464 67.2109C189.3 67.3086 189.175 67.4316 189.089 67.5801C189.004 67.7246 188.961 67.8945 188.961 68.0898C188.961 68.2891 189.005 68.4707 189.095 68.6348C189.185 68.7988 189.32 68.9297 189.5 69.0273C189.683 69.1211 189.908 69.168 190.173 69.168C190.505 69.168 190.798 69.0977 191.052 68.957C191.306 68.8164 191.507 68.6445 191.656 68.4414C191.808 68.2383 191.89 68.041 191.902 67.8496L192.365 68.3711C192.337 68.5352 192.263 68.7168 192.142 68.916C192.021 69.1152 191.859 69.3066 191.656 69.4902C191.457 69.6699 191.218 69.8203 190.941 69.9414C190.668 70.0586 190.359 70.1172 190.015 70.1172C189.586 70.1172 189.209 70.0332 188.884 69.8652C188.564 69.6973 188.314 69.4727 188.134 69.1914C187.959 68.9062 187.871 68.5879 187.871 68.2363C187.871 67.8965 187.937 67.5977 188.07 67.3398C188.203 67.0781 188.394 66.8613 188.644 66.6895C188.894 66.5137 189.195 66.3809 189.546 66.291C189.898 66.2012 190.291 66.1562 190.724 66.1562H191.984ZM196.42 69.0215L198.154 63.6602H199.261L196.982 70H196.255L196.42 69.0215ZM194.972 63.6602L196.759 69.0508L196.882 70H196.156L193.859 63.6602H194.972ZM209.65 67.0527C209.634 67.4121 209.58 67.7734 209.486 68.1367C209.392 68.4961 209.252 68.8262 209.064 69.127C208.877 69.4277 208.632 69.6699 208.332 69.8535C208.035 70.0332 207.675 70.123 207.254 70.123C206.984 70.123 206.748 70.0762 206.545 69.9824C206.345 69.8848 206.181 69.7461 206.052 69.5664C205.927 69.3867 205.839 69.1699 205.789 68.916C205.742 68.6621 205.734 68.3789 205.765 68.0664L206.064 64.8203H206.925L206.627 68.0664C206.603 68.3516 206.609 68.584 206.644 68.7637C206.683 68.9434 206.742 69.082 206.82 69.1797C206.898 69.2734 206.986 69.3379 207.084 69.373C207.185 69.4082 207.283 69.4258 207.377 69.4258C207.611 69.4258 207.82 69.3652 208.004 69.2441C208.187 69.1191 208.341 68.9492 208.466 68.7344C208.595 68.5156 208.695 68.2637 208.765 67.9785C208.836 67.6895 208.879 67.3809 208.894 67.0527C208.921 66.4707 208.894 65.9355 208.812 65.4473C208.734 64.959 208.599 64.5254 208.408 64.1465C208.22 63.7676 207.974 63.4473 207.67 63.1855C207.365 62.9238 207.002 62.7246 206.58 62.5879C206.158 62.4512 205.675 62.3828 205.132 62.3828C204.64 62.3828 204.185 62.459 203.767 62.6113C203.353 62.7598 202.98 62.9746 202.648 63.2559C202.32 63.5371 202.037 63.875 201.798 64.2695C201.564 64.6641 201.379 65.1094 201.242 65.6055C201.109 66.0977 201.031 66.6289 201.007 67.1992C200.98 67.7852 201.011 68.3242 201.101 68.8164C201.191 69.3047 201.336 69.7402 201.535 70.123C201.738 70.5098 201.994 70.8359 202.302 71.1016C202.611 71.3711 202.968 71.5742 203.375 71.7109C203.781 71.8516 204.234 71.9219 204.734 71.9219C205.078 71.9219 205.425 71.8809 205.777 71.7988C206.132 71.7168 206.429 71.6055 206.668 71.4648L206.89 72.1328C206.617 72.3086 206.275 72.4395 205.865 72.5254C205.459 72.6113 205.074 72.6543 204.711 72.6543C204.117 72.6543 203.574 72.5723 203.082 72.4082C202.593 72.248 202.16 72.0117 201.781 71.6992C201.406 71.3906 201.093 71.0137 200.843 70.5684C200.593 70.127 200.41 69.623 200.293 69.0566C200.175 68.4902 200.13 67.8711 200.158 67.1992C200.185 66.5586 200.281 65.9551 200.445 65.3887C200.613 64.8223 200.841 64.3086 201.13 63.8477C201.42 63.3867 201.763 62.9902 202.162 62.6582C202.564 62.3223 203.015 62.0645 203.515 61.8848C204.019 61.7051 204.566 61.6152 205.156 61.6152C205.757 61.6152 206.302 61.6973 206.791 61.8613C207.279 62.0254 207.707 62.2617 208.074 62.5703C208.445 62.8789 208.752 63.2559 208.994 63.7012C209.236 64.1465 209.412 64.6504 209.521 65.2129C209.634 65.7754 209.677 66.3887 209.65 67.0527ZM203.632 67.5508C203.605 67.8242 203.605 68.0684 203.632 68.2832C203.66 68.498 203.712 68.6797 203.791 68.8281C203.869 68.9766 203.97 69.0898 204.095 69.168C204.224 69.2422 204.375 69.2793 204.546 69.2793C204.66 69.2793 204.779 69.252 204.904 69.1973C205.029 69.1387 205.152 69.0488 205.273 68.9277C205.394 68.8066 205.507 68.6484 205.613 68.4531C205.718 68.2578 205.806 68.0234 205.877 67.75L206.263 68.1719C206.173 68.4922 206.056 68.7734 205.912 69.0156C205.771 69.2578 205.613 69.4609 205.437 69.625C205.261 69.7891 205.074 69.9141 204.875 70C204.679 70.082 204.48 70.123 204.277 70.123C203.992 70.123 203.742 70.0625 203.527 69.9414C203.312 69.8164 203.138 69.6406 203.005 69.4141C202.873 69.1875 202.779 68.918 202.724 68.6055C202.673 68.2891 202.666 67.9375 202.701 67.5508C202.736 67.1406 202.808 66.7617 202.918 66.4141C203.027 66.0664 203.162 65.7559 203.322 65.4824C203.486 65.209 203.67 64.9766 203.873 64.7852C204.08 64.5938 204.298 64.4492 204.529 64.3516C204.759 64.25 204.996 64.1992 205.238 64.1992C205.66 64.1992 205.992 64.2617 206.234 64.3867C206.476 64.5078 206.707 64.6523 206.925 64.8203L206.427 65.4004C206.314 65.291 206.166 65.1895 205.982 65.0957C205.798 65.002 205.582 64.9551 205.332 64.9551C205.117 64.9551 204.916 65.0098 204.728 65.1191C204.541 65.2285 204.371 65.3926 204.218 65.6113C204.07 65.8301 203.945 66.1016 203.843 66.4258C203.742 66.7461 203.671 67.1211 203.632 67.5508ZM211.115 63.6602H212.205V70.7559C212.205 71.1426 212.142 71.4707 212.017 71.7402C211.896 72.0098 211.712 72.2129 211.466 72.3496C211.224 72.4902 210.918 72.5605 210.546 72.5605C210.449 72.5605 210.336 72.5508 210.207 72.5312C210.074 72.5117 209.962 72.4883 209.873 72.4609L209.879 71.5879C209.953 71.6035 210.037 71.6152 210.13 71.623C210.224 71.6348 210.306 71.6406 210.377 71.6406C210.537 71.6406 210.671 71.6113 210.781 71.5527C210.89 71.4941 210.972 71.4004 211.027 71.2715C211.086 71.1426 211.115 70.9707 211.115 70.7559V63.6602ZM211.004 61.9785C211.004 61.8027 211.058 61.6543 211.168 61.5332C211.277 61.4121 211.435 61.3516 211.642 61.3516C211.853 61.3516 212.013 61.4121 212.123 61.5332C212.232 61.6543 212.287 61.8027 212.287 61.9785C212.287 62.1465 212.232 62.291 212.123 62.4121C212.013 62.5293 211.853 62.5879 211.642 62.5879C211.435 62.5879 211.277 62.5293 211.168 62.4121C211.058 62.291 211.004 62.1465 211.004 61.9785ZM215.134 63.6602V70H214.045V63.6602H215.134ZM213.962 61.9785C213.962 61.8027 214.015 61.6543 214.121 61.5332C214.23 61.4121 214.39 61.3516 214.601 61.3516C214.808 61.3516 214.966 61.4121 215.076 61.5332C215.189 61.6543 215.246 61.8027 215.246 61.9785C215.246 62.1465 215.189 62.291 215.076 62.4121C214.966 62.5293 214.808 62.5879 214.601 62.5879C214.39 62.5879 214.23 62.5293 214.121 62.4121C214.015 62.291 213.962 62.1465 213.962 61.9785ZM216.869 61H217.959V68.7695L217.865 70H216.869V61ZM222.242 66.7773V66.9004C222.242 67.3613 222.187 67.7891 222.078 68.1836C221.968 68.5742 221.808 68.9141 221.597 69.2031C221.386 69.4922 221.129 69.7168 220.824 69.877C220.519 70.0371 220.17 70.1172 219.775 70.1172C219.373 70.1172 219.019 70.0488 218.714 69.9121C218.414 69.7715 218.16 69.5703 217.953 69.3086C217.746 69.0469 217.58 68.7305 217.455 68.3594C217.334 67.9883 217.25 67.5703 217.203 67.1055V66.5664C217.25 66.0977 217.334 65.6777 217.455 65.3066C217.58 64.9355 217.746 64.6191 217.953 64.3574C218.16 64.0918 218.414 63.8906 218.714 63.7539C219.015 63.6133 219.365 63.543 219.763 63.543C220.162 63.543 220.515 63.6211 220.824 63.7773C221.132 63.9297 221.39 64.1484 221.597 64.4336C221.808 64.7188 221.968 65.0605 222.078 65.459C222.187 65.8535 222.242 66.293 222.242 66.7773ZM221.152 66.9004V66.7773C221.152 66.4609 221.123 66.1641 221.064 65.8867C221.005 65.6055 220.912 65.3594 220.783 65.1484C220.654 64.9336 220.484 64.7656 220.273 64.6445C220.062 64.5195 219.802 64.457 219.494 64.457C219.22 64.457 218.982 64.5039 218.779 64.5977C218.58 64.6914 218.41 64.8184 218.269 64.9785C218.129 65.1348 218.013 65.3145 217.923 65.5176C217.837 65.7168 217.773 65.9238 217.73 66.1387V67.5508C217.793 67.8242 217.894 68.0879 218.035 68.3418C218.179 68.5918 218.371 68.7969 218.609 68.957C218.851 69.1172 219.15 69.1973 219.505 69.1973C219.798 69.1973 220.048 69.1387 220.255 69.0215C220.466 68.9004 220.636 68.7344 220.765 68.5234C220.898 68.3125 220.996 68.0684 221.058 67.791C221.121 67.5137 221.152 67.2168 221.152 66.9004ZM226.244 70.1172C225.802 70.1172 225.402 70.043 225.043 69.8945C224.687 69.7422 224.38 69.5293 224.123 69.2559C223.869 68.9824 223.673 68.6582 223.537 68.2832C223.4 67.9082 223.332 67.498 223.332 67.0527V66.8066C223.332 66.291 223.408 65.832 223.56 65.4297C223.712 65.0234 223.92 64.6797 224.181 64.3984C224.443 64.1172 224.74 63.9043 225.072 63.7598C225.404 63.6152 225.748 63.543 226.103 63.543C226.556 63.543 226.947 63.6211 227.275 63.7773C227.607 63.9336 227.879 64.1523 228.089 64.4336C228.3 64.7109 228.457 65.0391 228.558 65.418C228.66 65.793 228.711 66.2031 228.711 66.6484V67.1348H223.976V66.25H227.627V66.168C227.611 65.8867 227.552 65.6133 227.451 65.3477C227.353 65.082 227.197 64.8633 226.982 64.6914C226.767 64.5195 226.474 64.4336 226.103 64.4336C225.857 64.4336 225.63 64.4863 225.423 64.5918C225.216 64.6934 225.039 64.8457 224.89 65.0488C224.742 65.252 224.627 65.5 224.545 65.793C224.462 66.0859 224.421 66.4238 224.421 66.8066V67.0527C224.421 67.3535 224.462 67.6367 224.545 67.9023C224.63 68.1641 224.754 68.3945 224.914 68.5938C225.078 68.793 225.275 68.9492 225.505 69.0625C225.74 69.1758 226.005 69.2324 226.302 69.2324C226.685 69.2324 227.009 69.1543 227.275 68.998C227.541 68.8418 227.773 68.6328 227.972 68.3711L228.629 68.8926C228.492 69.0996 228.318 69.2969 228.107 69.4844C227.896 69.6719 227.636 69.8242 227.328 69.9414C227.023 70.0586 226.662 70.1172 226.244 70.1172ZM229.994 69.4258C229.994 69.2422 230.05 69.0879 230.164 68.9629C230.281 68.834 230.449 68.7695 230.668 68.7695C230.886 68.7695 231.052 68.834 231.166 68.9629C231.283 69.0879 231.341 69.2422 231.341 69.4258C231.341 69.6055 231.283 69.7578 231.166 69.8828C231.052 70.0078 230.886 70.0703 230.668 70.0703C230.449 70.0703 230.281 70.0078 230.164 69.8828C230.05 69.7578 229.994 69.6055 229.994 69.4258ZM235.677 69.2266C235.935 69.2266 236.173 69.1738 236.392 69.0684C236.611 68.9629 236.791 68.8184 236.931 68.6348C237.072 68.4473 237.152 68.2344 237.171 67.9961H238.203C238.183 68.3711 238.056 68.7207 237.822 69.0449C237.591 69.3652 237.289 69.625 236.914 69.8242C236.539 70.0195 236.127 70.1172 235.677 70.1172C235.201 70.1172 234.785 70.0332 234.429 69.8652C234.078 69.6973 233.785 69.4668 233.55 69.1738C233.32 68.8809 233.146 68.5449 233.029 68.166C232.916 67.7832 232.859 67.3789 232.859 66.9531V66.707C232.859 66.2812 232.916 65.8789 233.029 65.5C233.146 65.1172 233.32 64.7793 233.55 64.4863C233.785 64.1934 234.078 63.9629 234.429 63.7949C234.785 63.627 235.201 63.543 235.677 63.543C236.173 63.543 236.607 63.6445 236.978 63.8477C237.349 64.0469 237.64 64.3203 237.851 64.668C238.066 65.0117 238.183 65.4023 238.203 65.8398H237.171C237.152 65.5781 237.078 65.3418 236.949 65.1309C236.824 64.9199 236.652 64.752 236.433 64.627C236.218 64.498 235.966 64.4336 235.677 64.4336C235.345 64.4336 235.066 64.5 234.839 64.6328C234.617 64.7617 234.439 64.9375 234.306 65.1602C234.177 65.3789 234.084 65.623 234.025 65.8926C233.97 66.1582 233.943 66.4297 233.943 66.707V66.9531C233.943 67.2305 233.97 67.5039 234.025 67.7734C234.08 68.043 234.171 68.2871 234.3 68.5059C234.433 68.7246 234.611 68.9004 234.834 69.0332C235.06 69.1621 235.341 69.2266 235.677 69.2266ZM239.134 66.9004V66.7656C239.134 66.3086 239.201 65.8848 239.334 65.4941C239.466 65.0996 239.658 64.7578 239.908 64.4688C240.158 64.1758 240.461 63.9492 240.816 63.7891C241.171 63.625 241.57 63.543 242.011 63.543C242.457 63.543 242.857 63.625 243.212 63.7891C243.572 63.9492 243.877 64.1758 244.127 64.4688C244.38 64.7578 244.574 65.0996 244.707 65.4941C244.839 65.8848 244.906 66.3086 244.906 66.7656V66.9004C244.906 67.3574 244.839 67.7812 244.707 68.1719C244.574 68.5625 244.38 68.9043 244.127 69.1973C243.877 69.4863 243.574 69.7129 243.218 69.877C242.867 70.0371 242.468 70.1172 242.023 70.1172C241.578 70.1172 241.177 70.0371 240.822 69.877C240.466 69.7129 240.162 69.4863 239.908 69.1973C239.658 68.9043 239.466 68.5625 239.334 68.1719C239.201 67.7812 239.134 67.3574 239.134 66.9004ZM240.218 66.7656V66.9004C240.218 67.2168 240.255 67.5156 240.33 67.7969C240.404 68.0742 240.515 68.3203 240.664 68.5352C240.816 68.75 241.005 68.9199 241.232 69.0449C241.459 69.166 241.722 69.2266 242.023 69.2266C242.32 69.2266 242.58 69.166 242.802 69.0449C243.029 68.9199 243.216 68.75 243.365 68.5352C243.513 68.3203 243.625 68.0742 243.699 67.7969C243.777 67.5156 243.816 67.2168 243.816 66.9004V66.7656C243.816 66.4531 243.777 66.1582 243.699 65.8809C243.625 65.5996 243.511 65.3516 243.359 65.1367C243.211 64.918 243.023 64.7461 242.796 64.6211C242.574 64.4961 242.312 64.4336 242.011 64.4336C241.714 64.4336 241.453 64.4961 241.226 64.6211C241.004 64.7461 240.816 64.918 240.664 65.1367C240.515 65.3516 240.404 65.5996 240.33 65.8809C240.255 66.1582 240.218 66.4531 240.218 66.7656ZM246.283 69.4258C246.283 69.2422 246.339 69.0879 246.453 68.9629C246.57 68.834 246.738 68.7695 246.957 68.7695C247.175 68.7695 247.341 68.834 247.455 68.9629C247.572 69.0879 247.63 69.2422 247.63 69.4258C247.63 69.6055 247.572 69.7578 247.455 69.8828C247.341 70.0078 247.175 70.0703 246.957 70.0703C246.738 70.0703 246.57 70.0078 246.453 69.8828C246.339 69.7578 246.283 69.6055 246.283 69.4258ZM250.607 63.6602V70H249.517V63.6602H250.607ZM249.435 61.9785C249.435 61.8027 249.488 61.6543 249.593 61.5332C249.703 61.4121 249.863 61.3516 250.074 61.3516C250.281 61.3516 250.439 61.4121 250.548 61.5332C250.662 61.6543 250.718 61.8027 250.718 61.9785C250.718 62.1465 250.662 62.291 250.548 62.4121C250.439 62.5293 250.281 62.5879 250.074 62.5879C249.863 62.5879 249.703 62.5293 249.593 62.4121C249.488 62.291 249.435 62.1465 249.435 61.9785ZM253.431 65.0137V70H252.347V63.6602H253.373L253.431 65.0137ZM253.173 66.5898L252.722 66.5723C252.726 66.1387 252.791 65.7383 252.916 65.3711C253.041 65 253.216 64.6777 253.443 64.4043C253.67 64.1309 253.939 63.9199 254.252 63.7715C254.568 63.6191 254.918 63.543 255.3 63.543C255.613 63.543 255.894 63.5859 256.144 63.6719C256.394 63.7539 256.607 63.8867 256.783 64.0703C256.962 64.2539 257.099 64.4922 257.193 64.7852C257.287 65.0742 257.334 65.4277 257.334 65.8457V70H256.244V65.834C256.244 65.502 256.195 65.2363 256.097 65.0371C256 64.834 255.857 64.6875 255.67 64.5977C255.482 64.5039 255.252 64.457 254.978 64.457C254.709 64.457 254.462 64.5137 254.24 64.627C254.021 64.7402 253.832 64.8965 253.671 65.0957C253.515 65.2949 253.392 65.5234 253.302 65.7812C253.216 66.0352 253.173 66.3047 253.173 66.5898ZM133.255 80.6602H134.345V87.7559C134.345 88.1426 134.283 88.4707 134.158 88.7402C134.037 89.0098 133.853 89.2129 133.607 89.3496C133.365 89.4902 133.058 89.5605 132.687 89.5605C132.589 89.5605 132.476 89.5508 132.347 89.5312C132.214 89.5117 132.103 89.4883 132.013 89.4609L132.019 88.5879C132.093 88.6035 132.177 88.6152 132.271 88.623C132.365 88.6348 132.447 88.6406 132.517 88.6406C132.677 88.6406 132.812 88.6113 132.921 88.5527C133.031 88.4941 133.113 88.4004 133.168 88.2715C133.226 88.1426 133.255 87.9707 133.255 87.7559V80.6602ZM133.144 78.9785C133.144 78.8027 133.199 78.6543 133.308 78.5332C133.418 78.4121 133.576 78.3516 133.783 78.3516C133.994 78.3516 134.154 78.4121 134.263 78.5332C134.373 78.6543 134.427 78.8027 134.427 78.9785C134.427 79.1465 134.373 79.291 134.263 79.4121C134.154 79.5293 133.994 79.5879 133.783 79.5879C133.576 79.5879 133.418 79.5293 133.308 79.4121C133.199 79.291 133.144 79.1465 133.144 78.9785ZM137.275 80.6602V87H136.185V80.6602H137.275ZM136.103 78.9785C136.103 78.8027 136.156 78.6543 136.261 78.5332C136.371 78.4121 136.531 78.3516 136.742 78.3516C136.949 78.3516 137.107 78.4121 137.216 78.5332C137.33 78.6543 137.386 78.8027 137.386 78.9785C137.386 79.1465 137.33 79.291 137.216 79.4121C137.107 79.5293 136.949 79.5879 136.742 79.5879C136.531 79.5879 136.371 79.5293 136.261 79.4121C136.156 79.291 136.103 79.1465 136.103 78.9785ZM139.009 78H140.099V85.7695L140.005 87H139.009V78ZM144.382 83.7773V83.9004C144.382 84.3613 144.328 84.7891 144.218 85.1836C144.109 85.5742 143.949 85.9141 143.738 86.2031C143.527 86.4922 143.269 86.7168 142.964 86.877C142.66 87.0371 142.31 87.1172 141.916 87.1172C141.513 87.1172 141.16 87.0488 140.855 86.9121C140.554 86.7715 140.3 86.5703 140.093 86.3086C139.886 86.0469 139.72 85.7305 139.595 85.3594C139.474 84.9883 139.39 84.5703 139.343 84.1055V83.5664C139.39 83.0977 139.474 82.6777 139.595 82.3066C139.72 81.9355 139.886 81.6191 140.093 81.3574C140.3 81.0918 140.554 80.8906 140.855 80.7539C141.156 80.6133 141.505 80.543 141.904 80.543C142.302 80.543 142.656 80.6211 142.964 80.7773C143.273 80.9297 143.531 81.1484 143.738 81.4336C143.949 81.7188 144.109 82.0605 144.218 82.459C144.328 82.8535 144.382 83.293 144.382 83.7773ZM143.293 83.9004V83.7773C143.293 83.4609 143.263 83.1641 143.205 82.8867C143.146 82.6055 143.052 82.3594 142.923 82.1484C142.795 81.9336 142.625 81.7656 142.414 81.6445C142.203 81.5195 141.943 81.457 141.634 81.457C141.361 81.457 141.123 81.5039 140.92 81.5977C140.72 81.6914 140.55 81.8184 140.41 81.9785C140.269 82.1348 140.154 82.3145 140.064 82.5176C139.978 82.7168 139.914 82.9238 139.871 83.1387V84.5508C139.933 84.8242 140.035 85.0879 140.175 85.3418C140.32 85.5918 140.511 85.7969 140.75 85.957C140.992 86.1172 141.291 86.1973 141.646 86.1973C141.939 86.1973 142.189 86.1387 142.396 86.0215C142.607 85.9004 142.777 85.7344 142.906 85.5234C143.039 85.3125 143.136 85.0684 143.199 84.791C143.261 84.5137 143.293 84.2168 143.293 83.9004ZM148.384 87.1172C147.943 87.1172 147.543 87.043 147.183 86.8945C146.828 86.7422 146.521 86.5293 146.263 86.2559C146.009 85.9824 145.814 85.6582 145.677 85.2832C145.541 84.9082 145.472 84.498 145.472 84.0527V83.8066C145.472 83.291 145.548 82.832 145.701 82.4297C145.853 82.0234 146.06 81.6797 146.322 81.3984C146.584 81.1172 146.88 80.9043 147.212 80.7598C147.545 80.6152 147.888 80.543 148.244 80.543C148.697 80.543 149.087 80.6211 149.416 80.7773C149.748 80.9336 150.019 81.1523 150.23 81.4336C150.441 81.7109 150.597 82.0391 150.699 82.418C150.8 82.793 150.851 83.2031 150.851 83.6484V84.1348H146.117V83.25H149.767V83.168C149.752 82.8867 149.693 82.6133 149.591 82.3477C149.494 82.082 149.337 81.8633 149.123 81.6914C148.908 81.5195 148.615 81.4336 148.244 81.4336C147.998 81.4336 147.771 81.4863 147.564 81.5918C147.357 81.6934 147.179 81.8457 147.031 82.0488C146.882 82.252 146.767 82.5 146.685 82.793C146.603 83.0859 146.562 83.4238 146.562 83.8066V84.0527C146.562 84.3535 146.603 84.6367 146.685 84.9023C146.771 85.1641 146.894 85.3945 147.054 85.5938C147.218 85.793 147.416 85.9492 147.646 86.0625C147.88 86.1758 148.146 86.2324 148.443 86.2324C148.826 86.2324 149.15 86.1543 149.416 85.998C149.681 85.8418 149.914 85.6328 150.113 85.3711L150.769 85.8926C150.632 86.0996 150.459 86.2969 150.248 86.4844C150.037 86.6719 149.777 86.8242 149.468 86.9414C149.164 87.0586 148.802 87.1172 148.384 87.1172ZM152.134 86.4258C152.134 86.2422 152.191 86.0879 152.304 85.9629C152.421 85.834 152.589 85.7695 152.808 85.7695C153.027 85.7695 153.193 85.834 153.306 85.9629C153.423 86.0879 153.482 86.2422 153.482 86.4258C153.482 86.6055 153.423 86.7578 153.306 86.8828C153.193 87.0078 153.027 87.0703 152.808 87.0703C152.589 87.0703 152.421 87.0078 152.304 86.8828C152.191 86.7578 152.134 86.6055 152.134 86.4258ZM157.818 86.2266C158.076 86.2266 158.314 86.1738 158.533 86.0684C158.752 85.9629 158.931 85.8184 159.072 85.6348C159.212 85.4473 159.293 85.2344 159.312 84.9961H160.343C160.324 85.3711 160.197 85.7207 159.962 86.0449C159.732 86.3652 159.429 86.625 159.054 86.8242C158.679 87.0195 158.267 87.1172 157.818 87.1172C157.341 87.1172 156.925 87.0332 156.57 86.8652C156.218 86.6973 155.925 86.4668 155.691 86.1738C155.461 85.8809 155.287 85.5449 155.17 85.166C155.056 84.7832 155 84.3789 155 83.9531V83.707C155 83.2812 155.056 82.8789 155.17 82.5C155.287 82.1172 155.461 81.7793 155.691 81.4863C155.925 81.1934 156.218 80.9629 156.57 80.7949C156.925 80.627 157.341 80.543 157.818 80.543C158.314 80.543 158.748 80.6445 159.119 80.8477C159.49 81.0469 159.781 81.3203 159.992 81.668C160.207 82.0117 160.324 82.4023 160.343 82.8398H159.312C159.293 82.5781 159.218 82.3418 159.089 82.1309C158.964 81.9199 158.793 81.752 158.574 81.627C158.359 81.498 158.107 81.4336 157.818 81.4336C157.486 81.4336 157.207 81.5 156.98 81.6328C156.757 81.7617 156.58 81.9375 156.447 82.1602C156.318 82.3789 156.224 82.623 156.166 82.8926C156.111 83.1582 156.084 83.4297 156.084 83.707V83.9531C156.084 84.2305 156.111 84.5039 156.166 84.7734C156.22 85.043 156.312 85.2871 156.441 85.5059C156.574 85.7246 156.752 85.9004 156.974 86.0332C157.201 86.1621 157.482 86.2266 157.818 86.2266ZM161.275 83.9004V83.7656C161.275 83.3086 161.341 82.8848 161.474 82.4941C161.607 82.0996 161.798 81.7578 162.048 81.4688C162.298 81.1758 162.601 80.9492 162.957 80.7891C163.312 80.625 163.711 80.543 164.152 80.543C164.597 80.543 164.998 80.625 165.353 80.7891C165.712 80.9492 166.017 81.1758 166.267 81.4688C166.521 81.7578 166.714 82.0996 166.847 82.4941C166.98 82.8848 167.046 83.3086 167.046 83.7656V83.9004C167.046 84.3574 166.98 84.7812 166.847 85.1719C166.714 85.5625 166.521 85.9043 166.267 86.1973C166.017 86.4863 165.714 86.7129 165.359 86.877C165.007 87.0371 164.609 87.1172 164.164 87.1172C163.718 87.1172 163.318 87.0371 162.962 86.877C162.607 86.7129 162.302 86.4863 162.048 86.1973C161.798 85.9043 161.607 85.5625 161.474 85.1719C161.341 84.7812 161.275 84.3574 161.275 83.9004ZM162.359 83.7656V83.9004C162.359 84.2168 162.396 84.5156 162.47 84.7969C162.545 85.0742 162.656 85.3203 162.804 85.5352C162.957 85.75 163.146 85.9199 163.373 86.0449C163.599 86.166 163.863 86.2266 164.164 86.2266C164.461 86.2266 164.72 86.166 164.943 86.0449C165.17 85.9199 165.357 85.75 165.505 85.5352C165.654 85.3203 165.765 85.0742 165.839 84.7969C165.918 84.5156 165.957 84.2168 165.957 83.9004V83.7656C165.957 83.4531 165.918 83.1582 165.839 82.8809C165.765 82.5996 165.652 82.3516 165.5 82.1367C165.351 81.918 165.164 81.7461 164.937 81.6211C164.714 81.4961 164.453 81.4336 164.152 81.4336C163.855 81.4336 163.593 81.4961 163.367 81.6211C163.144 81.7461 162.957 81.918 162.804 82.1367C162.656 82.3516 162.545 82.5996 162.47 82.8809C162.396 83.1582 162.359 83.4531 162.359 83.7656ZM169.484 81.9199V87H168.394V80.6602H169.425L169.484 81.9199ZM169.261 83.5898L168.757 83.5723C168.761 83.1387 168.818 82.7383 168.927 82.3711C169.037 82 169.199 81.6777 169.414 81.4043C169.629 81.1309 169.896 80.9199 170.216 80.7715C170.537 80.6191 170.908 80.543 171.33 80.543C171.627 80.543 171.9 80.5859 172.15 80.6719C172.4 80.7539 172.617 80.8848 172.8 81.0645C172.984 81.2441 173.127 81.4746 173.228 81.7559C173.33 82.0371 173.38 82.377 173.38 82.7754V87H172.296V82.8281C172.296 82.4961 172.24 82.2305 172.127 82.0312C172.017 81.832 171.861 81.6875 171.658 81.5977C171.455 81.5039 171.216 81.457 170.943 81.457C170.623 81.457 170.355 81.5137 170.14 81.627C169.925 81.7402 169.754 81.8965 169.625 82.0957C169.496 82.2949 169.402 82.5234 169.343 82.7812C169.289 83.0352 169.261 83.3047 169.261 83.5898ZM173.369 82.9922L172.642 83.2148C172.646 82.8672 172.703 82.5332 172.812 82.2129C172.925 81.8926 173.087 81.6074 173.298 81.3574C173.513 81.1074 173.777 80.9102 174.089 80.7656C174.402 80.6172 174.759 80.543 175.162 80.543C175.502 80.543 175.802 80.5879 176.064 80.6777C176.33 80.7676 176.552 80.9062 176.732 81.0938C176.916 81.2773 177.054 81.5137 177.148 81.8027C177.242 82.0918 177.289 82.4355 177.289 82.834V87H176.199V82.8223C176.199 82.4668 176.142 82.1914 176.029 81.9961C175.92 81.7969 175.763 81.6582 175.56 81.5801C175.361 81.498 175.123 81.457 174.845 81.457C174.607 81.457 174.396 81.498 174.212 81.5801C174.029 81.6621 173.875 81.7754 173.75 81.9199C173.625 82.0605 173.529 82.2227 173.462 82.4062C173.4 82.5898 173.369 82.7852 173.369 82.9922ZM178.947 86.4258C178.947 86.2422 179.004 86.0879 179.117 85.9629C179.234 85.834 179.402 85.7695 179.621 85.7695C179.839 85.7695 180.005 85.834 180.119 85.9629C180.236 86.0879 180.295 86.2422 180.295 86.4258C180.295 86.6055 180.236 86.7578 180.119 86.8828C180.005 87.0078 179.839 87.0703 179.621 87.0703C179.402 87.0703 179.234 87.0078 179.117 86.8828C179.004 86.7578 178.947 86.6055 178.947 86.4258ZM185.785 85.3184C185.785 85.1621 185.75 85.0176 185.679 84.8848C185.613 84.748 185.474 84.625 185.263 84.5156C185.056 84.4023 184.744 84.3047 184.326 84.2227C183.974 84.1484 183.656 84.0605 183.371 83.959C183.089 83.8574 182.849 83.7344 182.65 83.5898C182.455 83.4453 182.304 83.2754 182.199 83.0801C182.093 82.8848 182.041 82.6562 182.041 82.3945C182.041 82.1445 182.095 81.9082 182.205 81.6855C182.318 81.4629 182.476 81.2656 182.679 81.0938C182.886 80.9219 183.134 80.7871 183.423 80.6895C183.712 80.5918 184.035 80.543 184.39 80.543C184.898 80.543 185.332 80.6328 185.691 80.8125C186.05 80.9922 186.326 81.2324 186.517 81.5332C186.709 81.8301 186.804 82.1602 186.804 82.5234H185.72C185.72 82.3477 185.668 82.1777 185.562 82.0137C185.461 81.8457 185.31 81.707 185.111 81.5977C184.916 81.4883 184.675 81.4336 184.39 81.4336C184.089 81.4336 183.845 81.4805 183.658 81.5742C183.474 81.6641 183.339 81.7793 183.254 81.9199C183.171 82.0605 183.13 82.209 183.13 82.3652C183.13 82.4824 183.15 82.5879 183.189 82.6816C183.232 82.7715 183.306 82.8555 183.412 82.9336C183.517 83.0078 183.666 83.0781 183.857 83.1445C184.048 83.2109 184.293 83.2773 184.589 83.3438C185.109 83.4609 185.537 83.6016 185.873 83.7656C186.209 83.9297 186.459 84.1309 186.623 84.3691C186.787 84.6074 186.869 84.8965 186.869 85.2363C186.869 85.5137 186.81 85.7676 186.693 85.998C186.58 86.2285 186.414 86.4277 186.195 86.5957C185.98 86.7598 185.722 86.8887 185.421 86.9824C185.125 87.0723 184.791 87.1172 184.42 87.1172C183.861 87.1172 183.388 87.0176 183.002 86.8184C182.615 86.6191 182.322 86.3613 182.123 86.0449C181.923 85.7285 181.824 85.3945 181.824 85.043H182.914C182.929 85.3398 183.015 85.5762 183.171 85.752C183.328 85.9238 183.519 86.0469 183.746 86.1211C183.972 86.1914 184.197 86.2266 184.42 86.2266C184.716 86.2266 184.964 86.1875 185.164 86.1094C185.367 86.0312 185.521 85.9238 185.627 85.7871C185.732 85.6504 185.785 85.4941 185.785 85.3184ZM192.4 80.6602H193.384V86.8652C193.384 87.4238 193.271 87.9004 193.045 88.2949C192.818 88.6895 192.502 88.9883 192.095 89.1914C191.693 89.3984 191.228 89.502 190.701 89.502C190.482 89.502 190.224 89.4668 189.927 89.3965C189.634 89.3301 189.345 89.2148 189.06 89.0508C188.779 88.8906 188.543 88.6738 188.351 88.4004L188.92 87.7559C189.185 88.0762 189.462 88.2988 189.752 88.4238C190.045 88.5488 190.334 88.6113 190.619 88.6113C190.962 88.6113 191.259 88.5469 191.509 88.418C191.759 88.2891 191.953 88.0977 192.089 87.8438C192.23 87.5938 192.3 87.2852 192.3 86.918V82.0547L192.4 80.6602ZM188.035 83.9004V83.7773C188.035 83.293 188.091 82.8535 188.205 82.459C188.322 82.0605 188.488 81.7188 188.703 81.4336C188.921 81.1484 189.185 80.9297 189.494 80.7773C189.802 80.6211 190.15 80.543 190.537 80.543C190.935 80.543 191.283 80.6133 191.58 80.7539C191.88 80.8906 192.134 81.0918 192.341 81.3574C192.552 81.6191 192.718 81.9355 192.839 82.3066C192.961 82.6777 193.045 83.0977 193.091 83.5664V84.1055C193.048 84.5703 192.964 84.9883 192.839 85.3594C192.718 85.7305 192.552 86.0469 192.341 86.3086C192.134 86.5703 191.88 86.7715 191.58 86.9121C191.279 87.0488 190.927 87.1172 190.525 87.1172C190.146 87.1172 189.802 87.0371 189.494 86.877C189.189 86.7168 188.927 86.4922 188.709 86.2031C188.49 85.9141 188.322 85.5742 188.205 85.1836C188.091 84.7891 188.035 84.3613 188.035 83.9004ZM189.119 83.7773V83.9004C189.119 84.2168 189.15 84.5137 189.212 84.791C189.279 85.0684 189.379 85.3125 189.511 85.5234C189.648 85.7344 189.822 85.9004 190.033 86.0215C190.244 86.1387 190.496 86.1973 190.789 86.1973C191.148 86.1973 191.445 86.1211 191.679 85.9688C191.914 85.8164 192.099 85.6152 192.236 85.3652C192.377 85.1152 192.486 84.8438 192.564 84.5508V83.1387C192.521 82.9238 192.455 82.7168 192.365 82.5176C192.279 82.3145 192.166 82.1348 192.025 81.9785C191.888 81.8184 191.718 81.6914 191.515 81.5977C191.312 81.5039 191.074 81.457 190.8 81.457C190.504 81.457 190.248 81.5195 190.033 81.6445C189.822 81.7656 189.648 81.9336 189.511 82.1484C189.379 82.3594 189.279 82.6055 189.212 82.8867C189.15 83.1641 189.119 83.4609 189.119 83.7773Z" fill="#2676BB"/>
</g>
</g>
<defs>
<clipPath id="clip0_7094_4660">
<rect width="390" height="103" fill="white"/>
</clipPath>
<clipPath id="clip1_7094_4660">
<rect width="257" height="79" fill="white" transform="translate(132.4 12)"/>
</clipPath>
</defs>
</svg>
